{"accessors":[{"name":"GLASS_Plane.006-Mesh_positions","componentType":5126,"count":15134,"min":[-27.927366256713867,0.7397369742393494,-28.41958236694336],"max":[25.87066650390625,16.145973205566406,28.41958236694336],"type":"VEC3","bufferView":0,"byteOffset":0},{"name":"GLASS_Plane.006-Mesh_normals","componentType":5126,"count":15134,"min":[-1,-1,-1],"max":[1,1,1],"type":"VEC3","bufferView":0,"byteOffset":181608},{"name":"GLASS_Plane.006-Mesh_texcoords","componentType":5126,"count":15134,"min":[0.01243900042027235,0.006736000068485737],"max":[0.9818140268325806,0.948324978351593],"type":"VEC2","bufferView":1,"byteOffset":0},{"name":"GLASS_Plane.006-Mesh_0_indices","componentType":5123,"count":78030,"min":[0],"max":[15023],"type":"SCALAR","bufferView":2,"byteOffset":0},{"name":"GLASS_Plane.006-Mesh_1_indices","componentType":5123,"count":384,"min":[15024],"max":[15133],"type":"SCALAR","bufferView":2,"byteOffset":156060}],"asset":{"generator":"obj2gltf","version":"2.0"},"buffers":[{"name":"AN124","byteLength":2072644,"uri":"data:application/octet-stream;base64,"}],"bufferViews":[{"name":"bufferView_0","buffer":0,"byteLength":363216,"byteOffset":0,"byteStride":12,"target":34962},{"name":"bufferView_1","buffer":0,"byteLength":121072,"byteOffset":363216,"byteStride":8,"target":34962},{"name":"bufferView_2","buffer":0,"byteLength":156828,"byteOffset":484288,"target":34963},{"buffer":0,"byteOffset":641116,"byteLength":1431528}],"images":[{"name":"AN124TS","mimeType":"image/jpeg","bufferView":3}],"materials":[{"name":"fuselaje_AN124TS.jpg","pbrMetallicRoughness":{"baseColorTexture":{"index":0},"baseColorFactor":[1,1,1,1],"metallicFactor":0,"roughnessFactor":0.964705882},"emissiveFactor":[0,0,0],"alphaMode":"OPAQUE","doubleSided":false},{"name":"glass_AN124TS.jpg","pbrMetallicRoughness":{"baseColorTexture":{"index":0},"baseColorFactor":[1,1,1,0.509677],"metallicFactor":0,"roughnessFactor":0.907843137},"emissiveFactor":[0,0,0],"alphaMode":"BLEND","doubleSided":true}],"meshes":[{"name":"GLASS_Plane.006-Mesh","primitives":[{"attributes":{"POSITION":0,"NORMAL":1,"TEXCOORD_0":2},"indices":3,"material":0,"mode":4},{"attributes":{"POSITION":0,"NORMAL":1,"TEXCOORD_0":2},"indices":4,"material":1,"mode":4}]}],"nodes":[{"name":"GLASS_Plane.006","mesh":0}],"samplers":[{"magFilter":9729,"minFilter":9986,"wrapS":10497,"wrapT":10497}],"scene":0,"scenes":[{"nodes":[0]}],"textures":[{"name":"AN124TS","sampler":0,"source":0}]}
